<?xml version="1.0" encoding="UTF-8" standalone="no"?>
<svg
   viewBox="0 0 130 140.25"
   version="1.1"
   id="svg9"
   sodipodi:docname="ibm_satellite.svg"
   inkscape:version="1.1.2 (0a00cf5339, 2022-02-04)"
   inkscape:export-filename="/home/jgruber/Desktop/IBM_Satellite_svg_page.png"
   inkscape:export-xdpi="217.84616"
   inkscape:export-ydpi="217.84616"
   width="130"
   height="140.25"
   xmlns:inkscape="http://www.inkscape.org/namespaces/inkscape"
   xmlns:sodipodi="http://sodipodi.sourceforge.net/DTD/sodipodi-0.dtd"
   xmlns:xlink="http://www.w3.org/1999/xlink"
   xmlns="http://www.w3.org/2000/svg"
   xmlns:svg="http://www.w3.org/2000/svg"
   xmlns:rdf="http://www.w3.org/1999/02/22-rdf-syntax-ns#"
   xmlns:cc="http://creativecommons.org/ns#"
   xmlns:dc="http://purl.org/dc/elements/1.1/">
  <metadata
     id="metadata15">
    <rdf:RDF>
      <cc:Work
         rdf:about="">
        <dc:format>image/svg+xml</dc:format>
        <dc:type
           rdf:resource="http://purl.org/dc/dcmitype/StillImage" />
      </cc:Work>
    </rdf:RDF>
  </metadata>
  <defs
     id="defs13">
    <linearGradient
       inkscape:collect="always"
       id="linearGradient837">
      <stop
         style="stop-color:#cccccc;stop-opacity:1"
         offset="0"
         id="stop833" />
      <stop
         style="stop-color:#000060;stop-opacity:0;"
         offset="1"
         id="stop835" />
    </linearGradient>
    <linearGradient
       inkscape:collect="always"
       xlink:href="#linearGradient837"
       id="linearGradient839"
       x1="3"
       y1="15.975"
       x2="55.033897"
       y2="16.246187"
       gradientUnits="userSpaceOnUse"
       gradientTransform="matrix(5,0,0,5,-15,-9.75)" />
  </defs>
  <sodipodi:namedview
     pagecolor="#ffffff"
     bordercolor="#666666"
     borderopacity="1"
     objecttolerance="10"
     gridtolerance="10"
     guidetolerance="10"
     inkscape:pageopacity="0"
     inkscape:pageshadow="2"
     inkscape:window-width="1920"
     inkscape:window-height="1043"
     id="namedview11"
     showgrid="false"
     inkscape:zoom="2.8284271"
     inkscape:cx="64.877047"
     inkscape:cy="88.565124"
     inkscape:window-x="0"
     inkscape:window-y="1080"
     inkscape:window-maximized="1"
     inkscape:current-layer="svg9"
     inkscape:pagecheckerboard="0"
     fit-margin-top="0"
     fit-margin-left="0"
     fit-margin-right="0"
     fit-margin-bottom="0" />
  <path
     d="m 65,140.25 c -1,0 -1.5,0 -2.5,-0.5 l -60,-32.5 C 1,106.25 0,104.75 0,102.75 v -65 c 0,-2 1,-3.5 2.5,-4.5 l 60,-32.5 c 1.5,-1 3.5,-1 5,0 l 60,32.5 c 1.5,1 2.5,2.5 2.5,4.5 v 62.5 h -10 v -59.5 l -55,-30 -55,30 v 59 l 55,29.5 35.5,-21 5,8.5 -38,22 c -1,1.5 -1.5,1.5 -2.5,1.5 z"
     id="shell_outline_10_"
     style="fill:url(#linearGradient839);fill-opacity:1;stroke-width:5" />
  <circle
     cx="30"
     cy="90.25"
     r="10"
     id="circle3"
     style="fill:#b3b3b3;fill-opacity:1;stroke-width:5" />
  <path
     d="m 65,90.25 c -11,0 -20,-9 -20,-20 0,-11 9,-20 20,-20 11,0 20,9 20,20 0,11 -9,20 -20,20 z m 0,-30 c -5.5,0 -10,4.5 -10,10 0,5.5 4.5,10 10,10 5.5,0 10,-4.5 10,-10 0,-5.5 -4.5,-10 -10,-10 z"
     id="path5"
     style="fill:#b3b3b3;fill-opacity:1;stroke-width:5" />
  <circle
     cx="100"
     cy="50.25"
     r="10"
     id="circle7"
     style="fill:#b3b3b3;fill-opacity:1;stroke-width:5" />
</svg>
